<svg xmlns="http://www.w3.org/2000/svg" viewBox="0 0 53.55 72"><defs><style>.cls-1{fill:#f6f6f6;}</style></defs><title>Ресурс 1</title><g id="Слой_2" data-name="Слой 2"><g id="Header"><g id="Logo"><path class="cls-1" d="M53.18,32.38c-1.68-7.28-3.71-9.76-10.94-11.55-2.73-.68-9.14-.09-10.71,1.13h-.68c2.57-4.4,5.8-8.77,9.8-11.77,1.09-.82,1.76-2.21,3.19-2.72a14.29,14.29,0,0,0-2.05-4.3c-2.72-.46-8.6,4.92-10,6.79h-.45A17.34,17.34,0,0,1,34,4.08c-.42-2.16-2.73-2.41-4.1-3.63-1.71.25-2,2.6-3,3.63V4.3h-.22c.05-.79.08-.95.45-1.36-.14-2-2.6-2-3.87-2.94-4.71.05-3.95,13.89-3,18.11.36,1.57.1,3.21.91,4.31v.67C11.86,18.63,4.1,22.21,1,30.34a14.92,14.92,0,0,0-.68,8.15c.46,1.28.91,2.57,1.37,3.85a12.42,12.42,0,0,0,5.69,5.43c6.46,2.67,13,.58,16.19,6.8,1.89,3.64,1.81,9.45.68,13.81-.24.91,0,1.82-.46,2.49V72H24c.52-1.54,1.66-2.89,2.28-4.3A47,47,0,0,0,29.71,53c2.16.12,4.72,1,7.29.45,9.62-2.09,14.23-6.86,16.41-16.3A13.16,13.16,0,0,0,53.18,32.38Z"/></g></g></g></svg>