<svg xmlns="http://www.w3.org/2000/svg" viewBox="0 0 241 53.98"><defs><style>.cls-1{fill:#fff;fill-rule:evenodd;}</style></defs><title>Ресурс 1</title><g id="Слой_2" data-name="Слой 2"><g id="HEADER"><g id="Nav"><g id="Logo"><g id="Logo-2" data-name="Logo"><path class="cls-1" d="M14.19,42.88l-4.52,0L29,9.36,25.75,3.83,0,48.6l17.44-.16L31.08,24.13,41.89,42.64l-16.65.14-2.32,5.61,28.62-.25L31,13ZM116,16.08h5.31V29.85h4.9V16.08h5.31V11.66H116Zm-9.53,5.19L99.2,11.66H94.62V29.85h4.86v-10l7.55,10h4.3V11.66h-4.85Zm29.83,8.58h4.92V11.66h-4.92ZM231.5,11.29a9.4,9.4,0,0,0-9.56,9.46v.05A9.53,9.53,0,0,0,241,20.75V20.7A9.31,9.31,0,0,0,231.5,11.29ZM236,20.8a4.59,4.59,0,0,1-4.5,4.86A4.67,4.67,0,0,1,227,20.75V20.7a4.59,4.59,0,0,1,4.48-4.86A4.68,4.68,0,0,1,236,20.75Zm-72.65,5.31-3.69-2.71a4.79,4.79,0,0,1-4,2.21c-2.48,0-4.22-2.13-4.22-4.86V20.7c0-2.65,1.74-4.81,4.22-4.81A4.72,4.72,0,0,1,159.53,18l3.69-2.93a8.58,8.58,0,0,0-7.5-3.8,9.22,9.22,0,0,0-9.33,9.46v.05a9.11,9.11,0,0,0,9.12,9.41A8.87,8.87,0,0,0,163.35,26.11ZM51.42,19.45l4.5,7.07H56l4.53-7.12V29.85h4.87V11.66H60.24L56,18.7l-4.22-7H46.62V17L36.74,0l-.37.22L67.68,54l.37-.22L51.42,25.22ZM89.54,20.7a9.53,9.53,0,0,0-19.06.05v.05a9.53,9.53,0,0,0,19.06-.05Zm-5,.1A4.59,4.59,0,0,1,80,25.66a4.67,4.67,0,0,1-4.53-4.91V20.7A4.59,4.59,0,0,1,80,15.84a4.68,4.68,0,0,1,4.55,4.91Zm97.79,4.76h-9.5V22.68h8.49v-4h-8.49V16h9.38V11.66H168V29.85h14.35Zm36.6-.13h-8.56V11.66h-4.91V29.85h13.47Zm-18.09,0h-8.57V11.66h-4.9V29.85h13.47ZM71.49,45.76h.68V39.7h-.68Zm10.3-1.2L78,39.7h-.64v6.06H78v-5l3.88,5h.54V39.7h-.66Zm5.37-4.23h2v5.43h.69V40.33h2V39.7H87.16ZM97.27,43h3.28v-.63H97.27V40.32h3.67V39.7H96.59v6.06H101v-.62H97.27Zm13.27-1.5v0a1.68,1.68,0,0,0-.46-1.19,2.37,2.37,0,0,0-1.71-.61h-2.59v6.06h.68V43.41h1.72l1.74,2.35h.84l-1.85-2.48A1.77,1.77,0,0,0,110.54,41.52Zm-4.08,1.27V40.33h1.86c1,0,1.53.45,1.53,1.2v0c0,.77-.64,1.24-1.54,1.24Zm13.39,1.77-3.78-4.86h-.64v6.06h.66v-5l3.88,5h.54V39.7h-.66Zm8-4.9-2.74,6.1h.69l.72-1.6h3.27l.7,1.6h.73l-2.74-6.1Zm-1.07,3.89,1.38-3.1,1.36,3.1Zm7.86-3.22h2v5.43h.69V40.33h2V39.7h-4.73Zm9.5,5.43h.67V39.7h-.67Zm8.68-6.16a3.05,3.05,0,0,0-3.07,3.13v0a3,3,0,0,0,3.05,3.11,3.06,3.06,0,0,0,3.08-3.13v0A3,3,0,0,0,152.85,39.6Zm2.35,3.15a2.37,2.37,0,0,1-2.35,2.48,2.4,2.4,0,0,1-2.37-2.5v0a2.36,2.36,0,1,1,4.72,0Zm10,1.81-3.79-4.86h-.63v6.06h.66v-5l3.88,5h.54V39.7h-.66Zm8-4.9-2.74,6.1h.69l.72-1.6h3.27l.7,1.6h.73l-2.74-6.1Zm-1.07,3.89,1.37-3.1,1.37,3.1Zm9.74-3.85h-.68v6.06h4.07v-.63H181.9Zm16.81,3.44h1.83v1.51a2.86,2.86,0,0,1-1.73.6,2.33,2.33,0,0,1-2.38-2.52v0a2.35,2.35,0,0,1,2.28-2.48,2.57,2.57,0,0,1,1.83.69l.44-.52a3.15,3.15,0,0,0-2.24-.8,3,3,0,0,0-3,3.13v0a3,3,0,0,0,3.06,3.11,3.62,3.62,0,0,0,2.41-.92V42.52h-2.48Zm12.21-1.62v0a1.64,1.64,0,0,0-.47-1.19,2.34,2.34,0,0,0-1.7-.61h-2.59v6.06h.68V43.41h1.72l1.74,2.35h.83l-1.84-2.48A1.77,1.77,0,0,0,210.92,41.52Zm-4.08,1.27V40.33h1.85c1,0,1.54.45,1.54,1.2v0c0,.77-.64,1.24-1.54,1.24Zm11.78-3.19a3.06,3.06,0,0,0-3.08,3.13v0a3.07,3.07,0,1,0,6.13,0v0A3,3,0,0,0,218.62,39.6ZM221,42.75a2.37,2.37,0,0,1-2.35,2.48,2.39,2.39,0,0,1-2.37-2.5v0a2.37,2.37,0,0,1,2.35-2.48,2.4,2.4,0,0,1,2.37,2.5Zm9.81.47c0,1.33-.71,2-1.81,2s-1.84-.73-1.84-2V39.7h-.68v3.52a2.51,2.51,0,1,0,5,0V39.7h-.68Zm8-3.52H236.5v6.06h.68V43.62h1.46c1.28,0,2.36-.67,2.36-2v0C241,40.43,240.11,39.7,238.75,39.7Zm1.56,2c0,.79-.65,1.33-1.65,1.33h-1.48V40.33h1.52c1,0,1.61.45,1.61,1.32Z"/></g></g></g></g></g></svg>